# xmcd
#
# Track frame offsets: 
#        183
#        11433
#        23438
#        34378
#        47975
#        58893
#        70168
#        83008
#        96410
#        106690
#        118088
#        129368
#        140895
#        155370
#        167693
#        179558
#        192695
#        205455
#        216138
#        228513
#
# Disc length: 3218 seconds
#
# Revision: 2
# Processed by: cddbd v1.5.2PL0 Copyright (c) Steve Scherf et al.
# Submitted via: ExactAudioCopy v0.95b3
#
DISCID=240c9014
DTITLE=Ann Peebles - Straight From The Heart and I Can't Stand The Rain
DYEAR=1972
DGENRE=Crossover
TTITLE0=Slipped , Tripped And Fell I Love
TTITLE1=Trouble, Heartaches And Sadness
TTITLE2=What You Laid On Me
TTITLE3=How Strong Is A Woman
TTITLE4=Somebody's On Your Case
TTITLE5=I Feel Like Breaking Up Somebody's Home
TTITLE6=I've Been There Before
TTITLE7=I Pity The Fool
TTITLE8=99 Pounds
TTITLE9=I Take What I Want
TTITLE10=I Can't Stand The Rain
TTITLE11=Do I Need You
TTITLE12=Until You Came Into My Life
TTITLE13=(You Keep Me) Hanging On
TTITLE14=Run, Run, Run
TTITLE15=If We Can't Trust Each Other
TTITLE16=A Love Vibration
TTITLE17=You Got To Feed The Fire
TTITLE18=I'm Gonna Tear Your Playhouse Down
TTITLE19=One Way Street
EXTD=
EXTT0=
EXTT1=
EXTT2=
EXTT3=
EXTT4=
EXTT5=
EXTT6=
EXTT7=
EXTT8=
EXTT9=
EXTT10=
EXTT11=
EXTT12=
EXTT13=
EXTT14=
EXTT15=
EXTT16=
EXTT17=
EXTT18=
EXTT19=
PLAYORDER=
